<svg width="20" height="20" viewBox="0 0 20 20" fill="none" xmlns="http://www.w3.org/2000/svg">
<path d="M10 20C4.48583 20 0 15.5142 0 10C0 4.48583 4.48583 0 10 0C15.5142 0 20 4.48583 20 10C20 15.5142 15.5142 20 10 20ZM10 0.833333C4.94583 0.833333 0.833333 4.94583 0.833333 10C0.833333 15.0542 4.94583 19.1667 10 19.1667C15.0542 19.1667 19.1667 15.0542 19.1667 10C19.1667 4.94583 15.0542 0.833333 10 0.833333Z" fill="#ECECEC"/>
<path d="M6.75918 13.6575C6.65251 13.6575 6.54584 13.6167 6.46418 13.5358C6.30168 13.3733 6.30168 13.1092 6.46418 12.9467L12.9458 6.465C13.1083 6.3025 13.3725 6.3025 13.535 6.465C13.6975 6.6275 13.6975 6.89167 13.535 7.05417L7.05334 13.5358C6.97251 13.6167 6.86584 13.6575 6.75918 13.6575V13.6575Z" fill="#ECECEC"/>
<path d="M13.2408 13.6575C13.1342 13.6575 13.0275 13.6167 12.9458 13.5358L6.46418 7.05333C6.30168 6.89083 6.30168 6.62667 6.46418 6.46417C6.62668 6.30167 6.89084 6.30167 7.05334 6.46417L13.535 12.9458C13.6975 13.1083 13.6975 13.3725 13.535 13.535C13.4542 13.6167 13.3475 13.6575 13.2408 13.6575V13.6575Z" fill="#ECECEC"/>
</svg>
